<svg xmlns="http://www.w3.org/2000/svg" width="57.312" height="95.08" viewBox="0 0 15.164 25.156" color="rgba(100.0000%, 0.0000%, 0.0000%, 100.0000%)"><path d="M9.106 92.696c.635-.051 2.413-.076 3.276-.076.965 0 2.362.025 2.972.076 1.245 3.327 1.829 5.308 1.981 5.867.432-.076.838-.076 1.27-.076s1.092 0 1.524.076c-1.27-2.565-4.623-11.227-6.96-16.79h-.71a892 892 0 0 1-7.494 16.79c.305-.076.61-.076.89-.076.279 0 .838 0 1.142.076.407-1.55 1.194-3.657 2.109-5.867m5.79-1.22c-.837.051-1.879.077-2.64.077a76 76 0 0 1-2.642-.076l2.667-6.249h.05a193 193 0 0 1 2.566 6.249" aria-label="A" style="font-size:25.4px;stroke-width:.264583" transform="translate(-4.966 -77.684)"/><path d="m10.072 78.005 6.113 1.676-6.261 23.072" style="fill:none;fill-opacity:1;stroke:#000;stroke-width:.665;stroke-dasharray:none;stroke-opacity:1" transform="translate(-4.966 -77.684)"/></svg> 