<svg xmlns="http://www.w3.org/2000/svg" width="82.002" height="95.08" viewBox="0 0 21.696 25.156" color="rgba(100.0000%, 0.0000%, 0.0000%, 100.0000%)"><path d="M9.106 92.696c.635-.051 2.413-.076 3.276-.076.965 0 2.362.025 2.972.076 1.245 3.327 1.829 5.308 1.981 5.867.432-.076.838-.076 1.27-.076s1.092 0 1.524.076c-1.27-2.565-4.623-11.227-6.96-16.79h-.71a892 892 0 0 1-7.494 16.79c.305-.076.61-.076.89-.076.279 0 .838 0 1.142.076.407-1.55 1.194-3.657 2.109-5.867m5.79-1.22c-.837.051-1.879.077-2.64.077a76 76 0 0 1-2.642-.076l2.667-6.249h.05a193 193 0 0 1 2.566 6.249" aria-label="A" style="font-size:25.4px;stroke-width:.264583" transform="translate(-4.966 -77.684)"/><path d="M22.604 97.885c-1.477 0-1.683-.561-2.188-1.646l-.28.019-.411 1.402.056.056c.486.412 1.29.898 2.786.898 1.59 0 4.095-1.085 4.095-3.553 0-1.477-1.14-2.525-2.58-2.655v-.094c.972-.224 2.206-1.309 2.206-2.861 0-1.347-1.16-2.431-3.01-2.431-1.44 0-2.488.636-2.955 1.047l-.056.056.393 1.197.28.019c.449-1.048 1.047-1.59 2.17-1.59.729 0 1.551.767 1.551 1.982 0 .823-.28 1.422-.71 1.833-.374.355-.917.524-1.552.524-.225 0-.43-.02-.692-.057v.823c.224-.037.617-.037.785-.037.599 0 1.31.168 1.833.598.486.412.73 1.066.73 1.796 0 2.262-1.777 2.674-2.45 2.674" aria-label="3" style="font-size:18.7003px;stroke-width:.194795" transform="translate(-4.966 -77.684)"/><path d="m10.072 78.005 6.113 1.676-6.261 23.072" style="fill:none;fill-opacity:1;stroke:#000;stroke-width:.665;stroke-dasharray:none;stroke-opacity:1" transform="translate(-4.966 -77.684)"/></svg>