<svg xmlns="http://www.w3.org/2000/svg" width="84.97" height="95.08" viewBox="0 0 22.482 25.156" color="rgba(100.0000%, 0.0000%, 0.0000%, 100.0000%)"><path d="M9.106 92.696c.635-.051 2.413-.076 3.276-.076.965 0 2.362.025 2.972.076 1.245 3.327 1.829 5.308 1.981 5.867.432-.076.838-.076 1.27-.076s1.092 0 1.524.076c-1.27-2.565-4.623-11.227-6.96-16.79h-.71a892 892 0 0 1-7.494 16.79c.305-.076.61-.076.89-.076.279 0 .838 0 1.142.076.407-1.55 1.194-3.657 2.109-5.867m5.79-1.22c-.837.051-1.879.077-2.64.077a76 76 0 0 1-2.642-.076l2.667-6.249h.05a193 193 0 0 1 2.566 6.249" aria-label="A" style="font-size:25.4px;stroke-width:.264583" transform="translate(-4.966 -77.684)"/><path d="M24.493 97.53c.224.729.767 1.084 1.459 1.084.467 0 1.047-.112 1.496-.58l-.15-.467a1.4 1.4 0 0 1-.505.093c-.187 0-.43-.018-.542-.13-.187-.169-.318-.636-.318-1.46 0-.542.056-2.617.056-2.823 0-2.525-1.664-3.03-3.085-3.03s-2.282.692-2.75 1.085l-.055.075.317 1.253.244.019c.523-.842 1.159-1.59 2.057-1.59.673 0 1.795.094 1.795 2.207 0 .13-.075.205-.131.224l-1.74.393c-1.907.43-3.103 1.44-3.103 2.711 0 1.384.953 2.02 2.337 2.02 1.029 0 1.552-.243 2.543-1.085zm0-3.31-.075 2.225c0 .243-.112.374-.262.486-.523.393-1.159.73-1.72.73-.841 0-1.384-.562-1.384-1.141 0-.842.393-1.478 1.852-1.87z" aria-label="a" style="font-size:18.7003px;stroke-width:.194795" transform="translate(-4.966 -77.684)"/><path d="m10.072 78.005 6.113 1.676-6.261 23.072" style="fill:none;fill-opacity:1;stroke:#000;stroke-width:.665;stroke-dasharray:none;stroke-opacity:1" transform="translate(-4.966 -77.684)"/></svg>