<?xml version="1.0" encoding="UTF-8"?>
<!-- Created with Inkscape (http://www.inkscape.org/) -->
<svg width="23.9mm" height="29.607mm" version="1.1" viewBox="0 0 23.9 29.607" xmlns="http://www.w3.org/2000/svg" color="rgba(100.0000%, 0.0000%, 0.0000%, 100.0000%)">
 <g transform="translate(-5.0672 -73.307)" stroke-width="1.3">
  <path d="m9.6392 92.924c0.9652-0.0254 2.4638-0.0508 3.3782-0.0508 0.8128 0 1.7018 0.0254 2.54 0.0254 1.1684 3.2004 1.7272 5.1054 1.8796 5.6642 0.4318-0.0762 1.6256-0.0762 2.0574-0.0762s1.8796 0 2.3114 0.0762c-1.27-2.5654-4.7752-11.1-6.9596-16.662h-2.286c-2.4384 5.6388-4.9276 11.049-7.493 16.662 0.3048-0.0762 1.143-0.0762 1.4224-0.0762s0.8382 0 1.143 0.0762c0.4064-1.4986 1.143-3.5052 2.0066-5.6388zm5.3848-1.4224c-0.7366 0-1.524 0.0254-2.1336 0.0254-0.7366 0-1.8542-0.0254-2.6416-0.0508l2.3622-5.5372h0.1524c0.9144 2.0828 1.6256 3.937 2.2606 5.5626z" aria-label="A"/>
  <path d="m25.097 97.943c-1.1201 0-1.1649-0.59741-1.6578-1.4786l-0.65715 0.01493-0.32858 1.1799 0.05974 0.07468c0.37338 0.32857 1.1649 0.83637 2.5539 0.83637 2.1507 0 3.8234-1.0305 3.8234-2.8526 0-1.4338-1.2546-2.076-2.3598-2.1805v-0.04481c1.0903-0.28377 1.9266-1.0305 1.9266-2.2851 0-1.4039-1.1649-1.9117-2.987-1.9117-1.3143 0-2.4195 0.5078-2.7929 0.83637l-0.04481 0.05974 0.31364 1.1799 0.65715 0.01494c0.44806-0.92598 0.73182-1.4636 1.7325-1.4636 0.58247 0 1.2247 0.73182 1.2247 1.5234 0 1.2396-0.83637 1.8968-2.3598 2.0013v0.59741c0.17922-0.02987 0.59741-0.02987 0.73182-0.02987 0.85131 0 1.6877 0.32858 1.6877 1.7474 0 1.7325-1.0007 2.1805-1.5234 2.1805z" stroke-width=".7644" aria-label="3"/>
  <path d="m10.833 78.005 6.1132 1.6762-6.2611 23.073" style="fill:none;stroke:#000;stroke-width:1.4"/>
 </g>
</svg>
