<?xml version="1.0" encoding="UTF-8"?>
<!-- Created with Inkscape (http://www.inkscape.org/) -->
<svg width="24.2mm" height="29.607mm" version="1.1" viewBox="0 0 24.2 29.607" xmlns="http://www.w3.org/2000/svg" color="rgba(100.0000%, 0.0000%, 0.0000%, 100.0000%)">
 <g transform="translate(-5.0672 -73.307)" stroke-width="1.3">
  <path d="m9.6392 92.924c0.9652-0.0254 2.4638-0.0508 3.3782-0.0508 0.8128 0 1.7018 0.0254 2.54 0.0254 1.1684 3.2004 1.7272 5.1054 1.8796 5.6642 0.4318-0.0762 1.6256-0.0762 2.0574-0.0762s1.8796 0 2.3114 0.0762c-1.27-2.5654-4.7752-11.1-6.9596-16.662h-2.286c-2.4384 5.6388-4.9276 11.049-7.493 16.662 0.3048-0.0762 1.143-0.0762 1.4224-0.0762s0.8382 0 1.143 0.0762c0.4064-1.4986 1.143-3.5052 2.0066-5.6388zm5.3848-1.4224c-0.7366 0-1.524 0.0254-2.1336 0.0254-0.7366 0-1.8542-0.0254-2.6416-0.0508l2.3622-5.5372h0.1524c0.9144 2.0828 1.6256 3.937 2.2606 5.5626z" aria-label="A"/>
  <path d="m23.244 90.115c-0.43815 0-1.0825-0.03866-1.0825-0.03866l-0.02577 0.03866c0.1031 0.73455 0.15464 1.6109 0.15464 2.5774v3.1573c0 0.96652-0.05155 1.8815-0.15464 2.5774l0.01289 0.03866s0.64434-0.03866 1.0954-0.03866c0.92786 0 1.2243 0.03866 2.3712 0.03866 2.5645 0 3.5181-1.3016 3.5181-2.4099 0-1.2371-0.96652-1.9459-2.0877-2.2681 0.65723-0.32217 1.3274-1.0052 1.3274-1.714 0-0.86342-0.64434-1.9975-3.0413-1.9975-0.45104 0-1.2758 0.03866-2.0877 0.03866zm0.87631 4.1625h1.1985c1.5078 0 1.7397 1.1083 1.7397 2.0232 0 0.8892-0.09021 1.482-1.8171 1.482-0.90208 0-1.1212-0.18042-1.1212-0.60568zm0-2.9382c0-0.42527 0.12887-0.57991 1.1727-0.57991 0.72167 0 1.1598 0.34795 1.1598 1.4691 0 0.94074-0.25774 1.366-1.3274 1.366h-1.0052z" stroke-width=".65956" aria-label="B"/>
  <path d="m10.833 78.005 6.1132 1.6762-6.2611 23.073" style="fill:none;stroke:#000;stroke-width:1.4"/>
 </g>
</svg>
