<?xml version="1.0" encoding="UTF-8"?>
<!-- Created with Inkscape (http://www.inkscape.org/) -->
<svg width="25.2mm" height="29.607mm" version="1.1" viewBox="0 0 25.2 29.607" xmlns="http://www.w3.org/2000/svg" color="rgba(100.0000%, 0.0000%, 0.0000%, 100.0000%)">
 <g transform="translate(-5.0672 -73.307)" stroke-width="1.3">
  <path d="m9.6392 92.924c0.9652-0.0254 2.4638-0.0508 3.3782-0.0508 0.8128 0 1.7018 0.0254 2.54 0.0254 1.1684 3.2004 1.7272 5.1054 1.8796 5.6642 0.4318-0.0762 1.6256-0.0762 2.0574-0.0762s1.8796 0 2.3114 0.0762c-1.27-2.5654-4.7752-11.1-6.9596-16.662h-2.286c-2.4384 5.6388-4.9276 11.049-7.493 16.662 0.3048-0.0762 1.143-0.0762 1.4224-0.0762s0.8382 0 1.143 0.0762c0.4064-1.4986 1.143-3.5052 2.0066-5.6388zm5.3848-1.4224c-0.7366 0-1.524 0.0254-2.1336 0.0254-0.7366 0-1.8542-0.0254-2.6416-0.0508l2.3622-5.5372h0.1524c0.9144 2.0828 1.6256 3.937 2.2606 5.5626z" aria-label="A"/>
  <path d="m24.07 95.605c0.4897-0.01289 1.25-0.02577 1.714-0.02577 0.41238 0 0.86342 0.01289 1.2887 0.01289 0.5928 1.6237 0.87631 2.5903 0.95363 2.8738 0.21908-0.03866 0.82476-0.03866 1.0438-0.03866 0.21908 0 0.95363 0 1.1727 0.03866-0.64434-1.3016-2.4227-5.6316-3.531-8.4538h-1.1598c-1.2371 2.8609-2.5001 5.6058-3.8016 8.4538 0.15464-0.03866 0.57991-0.03866 0.72167-0.03866 0.14176 0 0.42527 0 0.57991 0.03866 0.20619-0.76033 0.57991-1.7784 1.0181-2.8609zm2.732-0.72167c-0.37372 0-0.77321 0.01289-1.0825 0.01289-0.37372 0-0.94074-0.01289-1.3402-0.02577l1.1985-2.8093h0.07732c0.46393 1.0567 0.82476 1.9975 1.1469 2.8222z" stroke-width=".65956" aria-label="A"/>
  <path d="m10.833 78.005 6.1132 1.6762-6.2611 23.073" style="fill:none;stroke:#000;stroke-width:1.4"/>
 </g>
</svg>
