<svg xmlns="http://www.w3.org/2000/svg" width="81.468" height="95.08" viewBox="0 0 21.555 25.156" color="rgba(100.0000%, 0.0000%, 0.0000%, 100.0000%)"><path d="M9.106 92.696c.635-.051 2.413-.076 3.276-.076.965 0 2.362.025 2.972.076 1.245 3.327 1.829 5.308 1.981 5.867.432-.076.838-.076 1.27-.076s1.092 0 1.524.076c-1.27-2.565-4.623-11.227-6.96-16.79h-.71a892 892 0 0 1-7.494 16.79c.305-.076.61-.076.89-.076.279 0 .838 0 1.142.076.407-1.55 1.194-3.657 2.109-5.867m5.79-1.22c-.837.051-1.879.077-2.64.077a76 76 0 0 1-2.642-.076l2.667-6.249h.05a193 193 0 0 1 2.566 6.249" aria-label="A" style="font-size:25.4px;stroke-width:.264583" transform="translate(-4.966 -77.684)"/><path d="M22.847 88.086c.973 0 1.983.897 1.983 2.206 0 .786-.225 1.777-.71 2.506-1.347 2.001-3.48 3.871-4.414 4.75-.019.075-.019.15-.019.243 0 .28.094.561.187.73 1.384-.038 2.17-.094 3.534-.094 1.347 0 1.908.037 3.254.094a3.3 3.3 0 0 1-.056-.618c0-.299.019-.598.094-.879-1.066.094-1.627.15-3.422.15-.655 0-1.029 0-1.534.037-.019-.037-.019-.056-.019-.093 0-.168.187-.374.318-.505.917-.879 1.796-1.72 3.03-3.385.692-.935 1.365-2.132 1.365-3.197 0-1.777-1.197-3.011-3.291-3.011-1.702 0-2.787.954-3.217 1.515l.412 1.29.243.019c.262-.561.355-.954.823-1.328.374-.3.916-.43 1.44-.43" aria-label="2" style="font-size:18.7003px;stroke-width:.194795" transform="translate(-4.966 -77.684)"/><path d="m10.072 78.005 6.113 1.676-6.261 23.072" style="fill:none;fill-opacity:1;stroke:#000;stroke-width:.665;stroke-dasharray:none;stroke-opacity:1" transform="translate(-4.966 -77.684)"/></svg>