<svg xmlns="http://www.w3.org/2000/svg" width="72.068" height="95.08" viewBox="0 0 19.068 25.156" color="rgba(100.0000%, 0.0000%, 0.0000%, 100.0000%)"><path d="M9.106 92.696c.635-.051 2.413-.076 3.276-.076.965 0 2.362.025 2.972.076 1.245 3.327 1.829 5.308 1.981 5.867.432-.076.838-.076 1.27-.076s1.092 0 1.524.076c-1.27-2.565-4.623-11.227-6.96-16.79h-.71a892 892 0 0 1-7.494 16.79c.305-.076.61-.076.89-.076.279 0 .838 0 1.142.076.407-1.55 1.194-3.657 2.109-5.867m5.79-1.22c-.837.051-1.879.077-2.64.077a76 76 0 0 1-2.642-.076l2.667-6.249h.05a193 193 0 0 1 2.566 6.249" aria-label="A" style="font-size:25.4px;stroke-width:.264583" transform="translate(-4.966 -77.684)"/><path d="M23.865 94.803v-4.75c0-2.02.112-2.768.15-3.03 0-.093-.056-.093-.131-.093-1.216.393-2.637 1.122-4.095 1.57l.112.543c.841-.094 1.758-.3 2.132-.3.336 0 .336.749.336 1.422v4.638c0 1.458-.018 2.468-.15 3.534l.02.056s.523-.056.86-.056c.374 0 .897.056.897.056l.038-.056c-.131-1.122-.169-2.057-.169-3.534" aria-label="1" style="font-size:18.7003px;stroke-width:.194795" transform="translate(-4.966 -77.684)"/><path d="m10.072 78.005 6.113 1.676-6.261 23.072" style="fill:none;fill-opacity:1;stroke:#000;stroke-width:.665;stroke-dasharray:none;stroke-opacity:1" transform="translate(-4.966 -77.684)"/></svg>