<?xml version="1.0" encoding="UTF-8"?>
<!-- Created with Inkscape (http://www.inkscape.org/) -->
<svg width="24.6mm" height="29.607mm" version="1.1" viewBox="0 0 24.6 29.607" xmlns="http://www.w3.org/2000/svg" color="rgba(100.0000%, 0.0000%, 0.0000%, 100.0000%)">
 <g transform="translate(-5.0672 -73.307)" stroke-width="1.3">
  <path d="m9.6392 92.924c0.9652-0.0254 2.4638-0.0508 3.3782-0.0508 0.8128 0 1.7018 0.0254 2.54 0.0254 1.1684 3.2004 1.7272 5.1054 1.8796 5.6642 0.4318-0.0762 1.6256-0.0762 2.0574-0.0762s1.8796 0 2.3114 0.0762c-1.27-2.5654-4.7752-11.1-6.9596-16.662h-2.286c-2.4384 5.6388-4.9276 11.049-7.493 16.662 0.3048-0.0762 1.143-0.0762 1.4224-0.0762s0.8382 0 1.143 0.0762c0.4064-1.4986 1.143-3.5052 2.0066-5.6388zm5.3848-1.4224c-0.7366 0-1.524 0.0254-2.1336 0.0254-0.7366 0-1.8542-0.0254-2.6416-0.0508l2.3622-5.5372h0.1524c0.9144 2.0828 1.6256 3.937 2.2606 5.5626z" aria-label="A"/>
  <path d="m26.299 89.947c-1.1727 0-2.2552 0.32217-3.0671 0.95363-1.0181 0.79899-1.598 2.1135-1.598 3.531 0 1.3531 0.56702 2.6934 1.5851 3.3764 0.77321 0.51548 1.5464 0.74744 2.6418 0.74744 1.1469 0 2.4356-0.36083 3.5181-1.482l-0.30929-0.43815c-0.96652 0.92786-1.6753 1.1469-2.8738 1.1469-1.4047 0-2.4614-1.4047-2.4614-3.5954 0-2.616 1.4176-3.531 2.4743-3.531 1.1598 0 1.8428 0.54125 2.3712 1.598l0.38661-0.01289c0.05155-0.65723 0.1031-1.0438 0.25774-1.6753l-0.02577-0.03866s-1.3274-0.57991-2.8996-0.57991z" stroke-width=".65956" aria-label="C"/>
  <path d="m10.833 78.005 6.1132 1.6762-6.2611 23.073" style="fill:none;stroke:#000;stroke-width:1.4"/>
 </g>
</svg>
