<?xml version="1.0" encoding="UTF-8"?>
<!-- Created with Inkscape (http://www.inkscape.org/) -->
<svg width="23.8mm" height="29.607mm" version="1.1" viewBox="0 0 23.8 29.607" xmlns="http://www.w3.org/2000/svg" color="rgba(100.0000%, 0.0000%, 0.0000%, 100.0000%)">
 <g transform="translate(-5.0672 -73.307)" stroke-width="1.3">
  <path d="m9.6392 92.924c0.9652-0.0254 2.4638-0.0508 3.3782-0.0508 0.8128 0 1.7018 0.0254 2.54 0.0254 1.1684 3.2004 1.7272 5.1054 1.8796 5.6642 0.4318-0.0762 1.6256-0.0762 2.0574-0.0762s1.8796 0 2.3114 0.0762c-1.27-2.5654-4.7752-11.1-6.9596-16.662h-2.286c-2.4384 5.6388-4.9276 11.049-7.493 16.662 0.3048-0.0762 1.143-0.0762 1.4224-0.0762s0.8382 0 1.143 0.0762c0.4064-1.4986 1.143-3.5052 2.0066-5.6388zm5.3848-1.4224c-0.7366 0-1.524 0.0254-2.1336 0.0254-0.7366 0-1.8542-0.0254-2.6416-0.0508l2.3622-5.5372h0.1524c0.9144 2.0828 1.6256 3.937 2.2606 5.5626z" aria-label="A"/>
  <path d="m25.291 90.102c0.53767 0 1.1351 0.59741 1.1351 1.5234 0 0.95585-0.04481 1.7325-0.92598 2.6286l-1.1052 1.0903c-1.4636 1.4935-1.9117 2.1805-1.9117 3.0617l0.01494 0.05974c1.4487-0.02987 2.5838-0.05974 3.7189-0.05974 1.1201 0 1.4786 0.01493 2.5987 0.05974-0.04481-0.19416-0.08961-0.5078-0.08961-0.70196 0-0.19416 0.04481-0.79156 0.08961-0.98572-0.86624 0.05974-1.2844 0.13442-2.7779 0.13442h-1.2247c0-0.23896 0.53767-0.98572 0.85131-1.2844l1.4935-1.4487c0.85131-0.82144 1.5831-1.4039 1.5831-2.539 0-1.613-1.5533-2.3448-3.3305-2.3448-1.0753 0-2.4046 0.49286-2.7779 0.82144l-0.04481 0.05974 0.31364 1.1799 0.65715 0.01493c0.49286-0.88118 1.0007-1.2695 1.7325-1.2695z" stroke-width=".7644" aria-label="2"/>
  <path d="m10.833 78.005 6.1132 1.6762-6.2611 23.073" style="fill:none;stroke:#000;stroke-width:1.4"/>
 </g>
</svg>
