<?xml version="1.0" encoding="UTF-8"?>
<!-- Created with Inkscape (http://www.inkscape.org/) -->
<svg width="20.8mm" height="29.607mm" version="1.1" viewBox="0 0 20.8 29.607" xmlns="http://www.w3.org/2000/svg" color="rgba(100.0000%, 0.0000%, 0.0000%, 100.0000%)">
 <g transform="translate(-5.0672 -73.307)" stroke-width="1.3">
  <path d="m9.6392 92.924c0.9652-0.0254 2.4638-0.0508 3.3782-0.0508 0.8128 0 1.7018 0.0254 2.54 0.0254 1.1684 3.2004 1.7272 5.1054 1.8796 5.6642 0.4318-0.0762 1.6256-0.0762 2.0574-0.0762s1.8796 0 2.3114 0.0762c-1.27-2.5654-4.7752-11.1-6.9596-16.662h-2.286c-2.4384 5.6388-4.9276 11.049-7.493 16.662 0.3048-0.0762 1.143-0.0762 1.4224-0.0762s0.8382 0 1.143 0.0762c0.4064-1.4986 1.143-3.5052 2.0066-5.6388zm5.3848-1.4224c-0.7366 0-1.524 0.0254-2.1336 0.0254-0.7366 0-1.8542-0.0254-2.6416-0.0508l2.3622-5.5372h0.1524c0.9144 2.0828 1.6256 3.937 2.2606 5.5626z" aria-label="A"/>
  <path d="m25.361 95.584v-3.7786c0-1.613 0.13442-2.2253 0.16429-2.4344 0-0.07468-0.04481-0.07468-0.10455-0.07468-0.97079 0.31364-2.6286 0.8065-4.0176 1.1201l0.02987 0.64221c0.65715-0.08961 1.3292-0.08961 1.6279-0.08961 0.2539 0 0.26883 0.43312 0.26883 0.97079v3.6442c0 1.1649-0.02987 1.9864-0.16429 2.8228l0.01494 0.04481s0.59741-0.04481 1.15-0.04481c0.53767 0 1.1799 0.04481 1.1799 0.04481l0.02987-0.04481c-0.13442-0.89611-0.17922-1.6429-0.17922-2.8228z" stroke-width=".7644" aria-label="1"/>
  <path d="m10.833 78.005 6.1132 1.6762-6.2611 23.073" style="fill:none;stroke:#000;stroke-width:1.4"/>
 </g>
</svg>
